<svg width="782" height="782" xmlns="http://www.w3.org/2000/svg" xml:space="preserve" overflow="hidden">
  <g transform="translate(-1809 -847)">
    <!-- 外側の丸 -->
    <path d="M1837 1238C1837 1037.52 1999.52 875 2200 875 2400.48 875 2563 1037.52 2563 1238 2563 1438.48 2400.48 1601 2200 1601 1999.52 1601 1837 1438.48 1837 1238Z"
          stroke="#033560" stroke-width="56.1458" stroke-miterlimit="8" fill="none" fill-rule="evenodd"/>

    <!-- i の丸（塗りあり） -->
    <path d="M2171.5 1053C2171.5 1035.05 2186.05 1020.5 2204 1020.5 2221.95 1020.5 2236.5 1035.05 2236.5 1053 2236.5 1070.95 2221.95 1085.5 2204 1085.5 2186.05 1085.5 2171.5 1070.95 2171.5 1053Z"
          stroke="#033560" fill="#033560" stroke-width="6.875" stroke-miterlimit="8"/>

    <!-- i の縦棒（塗りあり） -->
    <rect x="2176.5" y="1161.5" width="55" height="363"
          stroke="#033560" fill="#033560" stroke-width="6.875" stroke-miterlimit="8"/>
  </g>
</svg>
